<svg width="24" height="24" viewBox="0 0 24 24" fill="none" xmlns="http://www.w3.org/2000/svg">
<g id="ep:arrow-up-bold">
<path id="Vector" d="M2.45383 16.0605C2.73512 16.3417 3.11658 16.4997 3.51433 16.4997C3.91207 16.4997 4.29354 16.3417 4.57483 16.0605L11.9998 8.6355L19.4248 16.0605C19.7077 16.3337 20.0866 16.4849 20.4799 16.4815C20.8732 16.4781 21.2494 16.3203 21.5276 16.0422C21.8057 15.7641 21.9634 15.3879 21.9668 14.9946C21.9703 14.6013 21.8191 14.2224 21.5458 13.9395L13.0603 5.454C12.779 5.17279 12.3976 5.01482 11.9998 5.01482C11.6021 5.01482 11.2206 5.17279 10.9393 5.454L2.45383 13.9395C2.17262 14.2208 2.01465 14.6023 2.01465 15C2.01465 15.3977 2.17262 15.7792 2.45383 16.0605Z" fill="#878787"/>
</g>
</svg>
