<svg width="25" height="25" viewBox="0 0 25 25" fill="none" xmlns="http://www.w3.org/2000/svg">
<g id="ep:arrow-up-bold">
<path id="Vector" d="M21.5595 7.94372C21.2777 7.66299 20.896 7.50567 20.4983 7.50635C20.1005 7.50703 19.7193 7.66566 19.4385 7.94735L12.0262 15.385L4.58853 7.97274C4.30516 7.69999 3.926 7.54945 3.53271 7.55354C3.13942 7.55763 2.76347 7.71603 2.48584 7.99461C2.2082 8.2732 2.05109 8.64969 2.04835 9.04299C2.0456 9.43629 2.19744 9.81493 2.47116 10.0974L10.9712 18.5683C11.2529 18.8491 11.6347 19.0064 12.0324 19.0057C12.4302 19.005 12.8113 18.8464 13.0922 18.5647L21.5631 10.0647C21.8439 9.78294 22.0012 9.40121 22.0005 9.00347C21.9998 8.60572 21.8412 8.22453 21.5595 7.94372Z" fill="#878787"/>
</g>
</svg>
